<?xml version="1.0" standalone="no"?>
<!DOCTYPE svg PUBLIC "-//W3C//DTD SVG 20010904//EN"
 "http://www.w3.org/TR/2001/REC-SVG-20010904/DTD/svg10.dtd">
<svg version="1.0" xmlns="http://www.w3.org/2000/svg"
 width="1443.000000pt" height="2000.000000pt" viewBox="0 0 1443.000000 2000.000000"
 preserveAspectRatio="xMidYMid meet">

<g transform="translate(0.000000,2000.000000) scale(0.100000,-0.100000)"
fill="#000000" stroke="none">
<path d="M1481 19966 c-39 -101 -44 -139 -38 -306 9 -242 85 -738 147 -961 17
-58 30 -111 30 -117 0 -9 -204 -12 -810 -12 l-810 0 0 -7385 0 -7385 23 -14
c12 -7 265 -141 563 -297 2662 -1397 3663 -1925 3664 -1934 0 -5 -64 -68 -143
-140 -78 -71 -203 -189 -277 -261 -74 -73 -256 -238 -405 -369 -148 -131 -281
-248 -295 -262 l-25 -24 80 29 c469 173 494 185 880 401 110 62 313 168 452
237 l252 124 583 -306 c321 -169 869 -457 1218 -642 349 -184 640 -334 645
-334 6 -1 129 62 275 139 146 77 627 331 1070 563 443 233 902 474 1019 536
l215 113 875 -441 c482 -242 967 -488 1079 -545 112 -58 206 -103 208 -100 2
2 -341 323 -762 712 l-766 708 43 23 c24 12 555 290 1179 619 624 328 1505
791 1957 1028 l823 432 0 7388 0 7387 -685 0 c-377 0 -685 2 -685 4 0 3 18 74
40 158 51 199 84 382 110 609 19 167 41 528 34 538 -6 7 -237 -91 -365 -155
-297 -148 -586 -345 -807 -549 -39 -37 -154 -164 -254 -283 -100 -120 -202
-241 -227 -269 l-45 -53 -4146 0 -4147 0 -215 243 c-118 133 -256 290 -307
349 -173 203 -307 300 -833 602 -208 119 -385 219 -393 222 -10 4 -18 -3 -24
-20z m11669 -244 c0 -53 -23 -308 -41 -452 -82 -662 -298 -1203 -661 -1663
-45 -56 -154 -174 -242 -262 -327 -323 -703 -686 -762 -734 -34 -28 -73 -66
-87 -85 -15 -19 -185 -181 -379 -360 -194 -179 -361 -337 -371 -351 -23 -32
-156 -140 -163 -132 -3 3 -1 102 6 219 8 129 10 338 7 533 -4 303 -6 329 -36
493 -43 239 -42 246 17 302 43 41 613 654 878 945 163 178 367 414 567 652
179 214 281 316 437 438 112 88 307 217 452 300 121 68 343 175 365 175 7 0
13 -8 13 -18z m-11471 -1282 c26 -63 73 -165 104 -226 31 -61 57 -114 57 -117
0 -4 -313 -7 -695 -7 l-695 0 0 -1330 0 -1330 -82 0 c-46 0 -89 -4 -96 -9 -10
-6 10 -46 80 -162 l93 -154 5 -1820 5 -1820 591 -5 592 -5 128 -117 c71 -64
174 -154 228 -200 l99 -83 -751 -3 -752 -2 0 -64 0 -65 -47 -6 c-64 -8 -103
-16 -103 -20 0 -16 80 -228 111 -294 l39 -84 0 -3186 0 -3186 1460 -775 1460
-775 368 -297 c202 -164 370 -298 373 -298 3 0 21 35 39 78 17 42 34 79 35 80
2 2 32 -12 67 -31 35 -19 102 -55 151 -81 l87 -47 -62 -82 c-72 -95 -221 -269
-267 -311 -27 -26 -33 -28 -57 -17 -15 6 -376 195 -803 420 -427 225 -1361
715 -2076 1091 -715 375 -1310 689 -1322 696 l-23 14 0 7369 c0 4052 3 7371 7
7374 3 4 366 6 806 5 l800 -3 46 -115z m9841 110 c0 -10 -134 -163 -329 -377
l-75 -83 -1896 -2 -1895 -3 -5 -1971 -5 -1971 -147 -143 -148 -142 0 80 0 80
130 122 c72 68 130 127 130 133 0 5 -58 72 -130 147 l-130 138 0 1766 0 1766
-1672 1 -1673 0 -195 222 c-107 121 -196 227 -198 234 -3 11 720 13 4117 13
2801 0 4121 -3 4121 -10z m2887 -7370 l3 -7375 -328 -171 c-180 -94 -1069
-562 -1977 -1039 -907 -477 -1660 -872 -1673 -878 -20 -9 -29 -4 -85 51 l-63
62 -424 -35 c-234 -20 -431 -34 -438 -33 -7 2 57 40 141 85 l154 82 284 10
c317 12 395 24 507 76 145 68 189 103 782 610 206 176 393 334 415 351 22 18
523 287 1112 600 l1073 569 0 3034 0 3034 109 163 c149 222 176 279 176 368
l0 70 -65 12 c-36 6 -100 15 -143 19 l-77 7 0 99 0 99 -586 0 c-322 0 -584 4
-582 8 2 5 99 97 216 205 l214 197 369 0 369 0 0 514 0 513 46 104 c58 133
123 314 164 454 35 121 102 416 96 422 -2 2 -70 -28 -151 -66 -82 -39 -150
-71 -152 -71 -1 0 -3 235 -3 522 l0 521 89 151 c207 351 321 590 365 763 14
53 24 98 23 100 -2 2 -400 -79 -450 -92 l-27 -7 2 798 3 799 91 205 c50 113
110 255 133 315 38 104 104 335 97 342 -4 5 -241 -45 -272 -58 -55 -20 -54
-26 -54 196 l0 205 -510 0 c-280 0 -510 2 -510 4 0 2 22 53 49 113 26 60 65
159 86 219 21 60 43 115 48 122 8 9 151 12 681 10 l671 -3 2 -7375z m-12523
6846 c14 -25 26 -47 26 -50 0 -3 -301 -6 -670 -6 l-670 0 0 -66 c0 -49 -3 -65
-12 -61 -56 20 -56 20 -64 -29 -12 -79 3 -182 40 -293 l36 -105 0 -994 0 -993
-47 3 -48 3 -3 1318 -2 1317 694 0 694 0 26 -44z m5116 -1698 l-1 -1743 -54
58 -55 58 0 1634 0 1635 -1550 0 -1550 0 -38 41 c-20 23 -38 45 -40 50 -2 5
700 9 1642 9 l1646 0 0 -1742z m4045 1692 l-49 -50 -1778 0 -1778 0 -2 -1861
-3 -1861 -42 -36 -43 -35 0 1947 0 1946 1872 0 1872 0 -49 -50z m2825 -150 l0
-201 -46 -19 c-25 -11 -50 -20 -55 -20 -5 0 -9 74 -9 170 l0 170 -475 0 c-261
0 -475 3 -475 6 0 3 12 25 26 50 l26 44 504 0 504 0 0 -200z m-11867 -25 c86
-125 229 -303 337 -419 45 -49 371 -359 724 -689 352 -331 756 -709 896 -840
l254 -239 23 28 c62 77 61 69 83 599 21 514 32 693 52 862 10 90 10 107 -4
135 -16 34 -162 209 -405 486 -79 90 -143 168 -143 173 0 5 609 8 1523 7
l1522 -3 3 -1608 c1 -1104 -1 -1606 -8 -1602 -10 6 -305 318 -1829 1934 -389
411 -477 500 -483 485 -12 -31 -47 -260 -63 -409 -34 -325 -29 -736 15 -1208
11 -116 20 -214 20 -218 0 -3 323 -312 717 -685 394 -374 830 -786 967 -916
138 -131 254 -238 257 -238 3 0 95 87 205 192 l199 193 3 -78 3 -78 -153 -162
c-420 -445 -962 -1057 -998 -1127 -64 -126 -129 -421 -155 -705 -10 -110 -6
-105 -87 -105 l-70 0 6 38 c3 20 17 123 31 227 14 105 27 202 29 217 5 24 -25
52 -362 340 -943 807 -1332 1122 -1446 1173 -28 13 -75 25 -103 28 l-53 4 0
-63 c0 -214 72 -510 202 -834 95 -236 518 -1075 560 -1112 19 -17 15 -18 -114
-18 l-134 0 -64 46 c-118 86 -257 173 -335 211 -64 30 -89 37 -144 37 l-66 1
2 -147 1 -148 -92 0 -93 0 -26 148 c-15 81 -37 218 -49 305 l-23 158 -140 73
c-77 40 -315 167 -530 281 -1068 568 -1689 880 -1827 917 l-48 12 0 660 c0
363 4 656 8 650 5 -5 75 -133 157 -284 227 -420 421 -736 514 -833 94 -100
1185 -893 1789 -1301 260 -176 442 -290 531 -335 56 -29 256 -80 267 -68 2 2
-26 66 -62 143 -331 694 -435 1048 -460 1571 l-7 143 -614 467 c-808 615 -965
715 -1374 876 -256 101 -480 170 -726 223 l-23 4 0 972 c0 534 2 969 4 967 2
-2 23 -49 46 -104 186 -440 615 -1296 753 -1501 38 -57 153 -153 1107 -920
586 -471 1150 -926 1255 -1010 104 -84 191 -151 193 -149 2 2 -63 569 -204
1770 l-15 130 -337 336 c-185 184 -404 396 -487 470 -626 562 -1097 862 -2120
1349 l-190 90 -3 51 c-2 29 -1 58 2 65 5 12 114 14 673 12 l667 -3 69 -100z
m8936 58 c-20 -21 -152 -164 -295 -318 -142 -153 -276 -294 -296 -313 -69 -62
-69 -69 -15 -382 l32 -185 -1 -390 c-1 -260 -7 -456 -17 -589 -9 -110 -15
-202 -13 -204 8 -7 164 78 223 122 34 26 88 75 120 110 32 34 205 198 385 364
179 165 339 317 355 337 15 20 80 81 144 135 64 55 145 131 180 170 35 39 168
168 294 286 127 119 277 266 333 328 122 130 284 343 362 473 l55 92 478 1
477 0 0 -162 0 -163 -183 -92 c-457 -231 -985 -581 -1465 -970 -375 -305
-1099 -946 -1129 -1000 -18 -33 -22 -62 -27 -213 -20 -522 -102 -1074 -236
-1580 -16 -63 -30 -116 -30 -118 0 -1 53 24 118 57 108 56 185 109 502 346
145 108 1579 1235 1715 1348 243 201 229 185 343 389 56 102 167 313 247 469
l145 284 0 -641 0 -641 -97 -28 c-239 -68 -491 -165 -663 -257 -214 -115 -389
-238 -779 -551 -123 -99 -298 -236 -390 -306 -390 -296 -471 -363 -471 -391 0
-14 -5 -87 -10 -161 -35 -454 -91 -659 -325 -1189 -77 -175 -179 -439 -172
-446 9 -10 223 87 322 145 178 105 1414 939 1740 1174 99 72 225 163 280 203
173 125 261 226 481 558 l79 119 3 -428 c1 -236 -1 -432 -5 -436 -5 -5 -172
-86 -373 -182 -201 -96 -423 -206 -495 -244 -71 -39 -254 -132 -405 -208 -315
-158 -573 -299 -776 -427 -113 -70 -145 -95 -158 -123 -19 -39 -45 -166 -72
-347 l-17 -118 -89 0 c-48 0 -88 3 -88 8 0 4 11 67 25 141 14 74 25 135 25
137 0 1 -39 -10 -86 -26 -103 -35 -177 -74 -340 -181 l-121 -79 -175 2 -176 3
59 100 c322 545 553 1091 638 1506 21 100 53 330 48 336 -7 6 -180 -67 -217
-91 -43 -28 -572 -445 -845 -664 -279 -225 -407 -339 -875 -780 l-435 -411
-182 0 c-150 -1 -181 1 -177 13 6 15 706 674 798 751 33 28 105 93 161 146
103 98 787 692 907 787 132 104 171 163 197 297 200 1012 242 1256 243 1422 1
92 0 93 -42 163 -23 38 -44 70 -47 70 -2 0 -221 -217 -486 -483 -265 -266
-793 -781 -1173 -1144 -380 -364 -712 -685 -738 -715 -63 -72 -81 -132 -72
-253 11 -166 -29 -753 -70 -1017 l-6 -38 -94 0 c-70 0 -92 3 -89 13 13 39 99
936 90 945 -6 6 -192 -101 -219 -126 -16 -15 -62 -67 -103 -117 -42 -49 -109
-121 -149 -159 l-75 -68 4 303 c3 290 5 319 44 619 55 418 150 1376 137 1389
-2 2 -36 -23 -76 -55 -39 -33 -80 -65 -90 -72 -17 -13 -18 57 -18 1822 l0
1836 1757 0 1757 0 -35 -37z m3151 -287 c0 -28 -83 -252 -160 -431 -167 -390
-457 -983 -655 -1343 -90 -162 -115 -199 -158 -235 -29 -24 -104 -86 -167
-139 -170 -141 -1682 -1326 -1848 -1448 -192 -141 -276 -200 -284 -200 -3 0 0
24 8 53 31 113 105 503 133 702 40 280 60 500 68 732 6 175 8 194 27 217 56
66 883 786 1146 997 628 503 1382 961 1790 1085 90 27 100 28 100 10z m-224
-2322 c-2 -6 -21 -15 -41 -18 -20 -4 -43 -10 -51 -13 -12 -4 -14 87 -14 656
l0 662 53 111 52 112 3 -749 c1 -413 0 -755 -2 -761z m374 -38 c0 -7 -15 -52
-34 -98 -93 -231 -318 -629 -594 -1048 -264 -403 -334 -482 -567 -646 -72 -50
-202 -142 -290 -206 -158 -113 -537 -371 -1184 -806 -330 -223 -571 -375 -580
-367 -5 6 5 30 112 275 232 531 290 754 323 1237 l7 103 131 103 c72 57 207
161 301 232 93 71 294 228 445 348 314 251 437 341 602 438 304 181 627 296
1163 414 179 40 165 38 165 21z m-3602 -207 c7 -107 -36 -381 -159 -1014 -45
-231 -88 -443 -95 -472 -17 -63 -43 -95 -143 -175 -162 -132 -889 -763 -936
-814 -27 -29 -79 -77 -116 -106 -102 -83 -809 -750 -857 -810 -24 -29 -64 -70
-90 -90 -41 -33 -47 -35 -50 -19 -2 10 11 140 27 287 37 321 51 537 51 778 0
164 2 181 21 213 12 18 339 338 728 710 388 372 906 878 1151 1123 245 246
450 446 455 445 6 -1 11 -26 13 -56z m-10114 -98 l46 -83 0 -678 c0 -372 -2
-679 -4 -681 -3 -2 -25 -3 -50 -1 l-46 4 0 766 c0 421 2 763 4 761 2 -2 25
-42 50 -88z m13346 -1125 l0 -505 -52 -24 -53 -23 -3 442 -2 443 52 86 c29 46
54 85 56 85 1 0 2 -227 2 -504z m-6335 347 c-2 -16 -9 -91 -15 -168 -37 -466
-132 -1260 -157 -1309 -26 -51 -71 -104 -193 -231 -285 -295 -924 -1055 -1330
-1582 -140 -182 -257 -329 -259 -327 -5 4 17 439 35 679 49 683 119 1068 217
1190 96 121 725 819 983 1090 290 305 687 685 716 685 4 0 5 -12 3 -27z m-590
-382 l-55 -56 0 75 0 74 53 54 52 53 3 -73 3 -72 -56 -55z m-6399 -621 c17
-51 19 -107 24 -820 l5 -765 470 -3 469 -2 43 -42 c24 -23 43 -46 43 -50 0 -5
-253 -7 -562 -6 l-563 3 -2 1005 -1 1005 27 -135 c15 -74 36 -160 47 -190z
m10499 218 c-2 -13 -9 -52 -15 -88 -67 -395 -307 -973 -636 -1532 -80 -136
-83 -140 -159 -191 -165 -112 -878 -633 -1000 -732 -77 -62 -230 -191 -340
-286 -248 -215 -606 -524 -652 -563 l-35 -29 7 59 c4 32 23 169 42 304 29 198
37 288 42 471 5 179 9 230 21 244 8 10 305 291 660 624 355 332 679 637 720
676 139 130 471 402 1111 906 206 162 245 185 234 137z m3020 -115 c-30 -160
-157 -529 -255 -737 -156 -336 -424 -722 -656 -947 -242 -234 -630 -581 -751
-671 -284 -210 -824 -543 -1133 -698 -199 -100 -188 -106 -123 62 217 561 320
918 383 1331 17 105 40 243 51 305 25 132 9 114 219 243 196 120 365 211 662
360 145 72 335 170 423 217 125 67 1168 571 1184 572 2 0 0 -17 -4 -37z
m-13430 -376 c78 -211 196 -435 348 -662 125 -189 211 -297 461 -581 l38 -44
-446 0 -446 0 0 697 c0 383 2 694 4 692 2 -2 20 -48 41 -102z m6805 -550 l0
-273 -45 -49 -44 -50 -1 269 0 269 41 54 c23 29 43 53 45 53 2 0 4 -123 4
-273z m-120 -141 l0 -273 -81 -93 c-44 -52 -112 -128 -150 -169 l-69 -75 0
287 0 286 57 63 c60 67 236 248 240 248 2 0 3 -123 3 -274z m6550 -251 l0
-475 -344 0 -345 0 53 50 53 50 236 0 237 0 0 323 -1 322 53 102 c29 57 54
103 56 103 1 0 2 -214 2 -475z m-5990 209 c-40 -462 -79 -714 -155 -989 -50
-182 -61 -201 -158 -275 -45 -35 -172 -154 -282 -264 -299 -299 -629 -670
-1340 -1506 l-370 -435 -3 479 c-1 306 2 492 8 517 20 73 767 1005 1166 1454
88 99 214 241 279 316 421 477 497 563 575 639 47 47 119 125 159 173 68 80
131 141 139 133 1 -2 -6 -111 -18 -242z m5860 -264 l0 -290 -215 0 -215 0 83
103 c119 145 229 296 289 393 28 46 53 84 55 84 1 0 3 -130 3 -290z m-6781
-371 l-42 -49 -234 0 c-128 0 -233 3 -233 6 0 3 16 25 36 50 l36 44 182 2 181
3 3 214 2 213 53 60 52 60 3 -276 2 -277 -41 -50z m-89 266 l0 -185 -161 0
-160 0 21 28 c48 61 290 342 295 342 3 0 5 -83 5 -185z m4290 -196 c-40 -199
-89 -394 -151 -602 -127 -426 -386 -1049 -472 -1134 -12 -12 -89 -60 -172
-106 -82 -47 -557 -357 -1055 -690 -498 -333 -907 -601 -908 -596 -6 15 47
192 109 366 106 297 161 533 194 833 8 80 18 155 20 167 14 62 1327 1156 1759
1466 314 225 690 467 704 453 2 -2 -11 -73 -28 -157z m-7730 -38 c0 -10 3 -33
6 -50 l7 -31 -86 0 c-47 0 -88 4 -91 8 -3 5 -9 27 -15 50 l-9 42 94 0 c85 0
94 -2 94 -19z m966 -23 c35 -24 64 -46 64 -50 0 -5 -57 -8 -126 -8 l-126 0
-64 47 c-35 26 -64 48 -64 50 0 2 57 3 127 3 l126 0 63 -42z m1150 20 c-3 -13
-6 -35 -6 -50 0 -28 0 -28 -70 -28 l-70 0 0 34 c0 62 5 66 82 66 68 0 70 -1
64 -22z m2544 -28 l0 -50 -99 0 -98 0 10 50 10 50 88 0 89 0 0 -50z m602 0
l-53 -50 -174 0 -174 0 52 50 52 50 175 -1 175 0 -53 -49z m1950 0 l-72 -51
-152 3 -151 3 56 38 c31 20 57 42 57 47 0 6 63 10 167 10 l166 0 -71 -50z
m783 13 c-11 -65 -8 -63 -103 -63 l-89 0 10 50 10 50 89 0 89 0 -6 -37z
m-7966 -120 c41 -159 72 -275 86 -312 8 -24 15 -47 15 -52 0 -5 -41 -9 -90 -9
-89 0 -91 0 -101 28 -15 39 -87 300 -95 345 l-6 37 91 0 90 0 10 -37z m1332
-159 c153 -108 282 -200 285 -205 3 -5 -64 -9 -156 -9 l-161 0 -67 53 c-37 30
-156 122 -265 205 l-199 152 142 0 142 0 279 -196z m749 189 c0 -5 -7 -93 -15
-198 -8 -104 -15 -193 -15 -197 0 -5 -38 -8 -85 -8 l-85 0 0 27 c0 28 37 319
46 361 4 20 10 22 79 22 41 0 75 -3 75 -7z m1289 -75 c-39 -46 -121 -138 -182
-205 l-110 -123 -224 0 c-205 0 -223 1 -215 16 5 9 79 102 163 205 l154 189
243 0 244 0 -73 -82z m1251 37 c0 -25 2 -45 5 -45 3 0 41 20 84 45 l78 45 181
0 c100 0 182 -3 182 -7 -1 -5 -83 -84 -184 -178 -101 -93 -189 -182 -196 -197
l-12 -28 -215 0 -215 0 6 23 c3 12 25 99 47 192 23 94 43 176 45 183 2 8 31
12 99 12 l95 0 0 -45z m2455 37 c-6 -5 -63 -46 -128 -91 -65 -46 -181 -134
-259 -197 l-142 -114 -170 0 c-104 0 -166 4 -160 9 5 5 131 98 279 205 l270
196 160 0 c87 0 155 -4 150 -8z m871 -29 c-12 -69 -78 -338 -88 -355 -7 -15
-23 -18 -98 -18 -61 0 -90 4 -90 11 0 12 86 362 95 387 3 8 32 12 96 12 l91 0
-6 -37z m-9218 -445 l66 -53 -554 -3 c-305 -2 -629 2 -720 7 -91 6 -211 8
-267 4 l-103 -6 0 51 0 52 756 0 756 0 66 -52z m1391 11 c7 -23 15 -47 18 -55
4 -11 -12 -14 -85 -14 l-90 0 -16 47 c-9 26 -16 50 -16 55 0 4 40 8 88 8 l89
0 12 -41z m1612 -11 l74 -53 -164 -3 c-182 -3 -172 -6 -271 78 l-35 29 161 1
161 0 74 -52z m315 36 c-3 -9 -6 -33 -6 -55 l0 -39 -91 0 -91 0 6 31 c3 17 6
42 6 55 0 24 2 24 91 24 79 0 90 -2 85 -16z m998 4 c-4 -7 -24 -32 -43 -55
l-35 -43 -213 0 c-117 0 -213 3 -213 6 0 4 16 28 36 55 l36 49 219 0 c174 0
219 -3 213 -12z m1702 -19 c-3 -17 -6 -42 -6 -55 l0 -24 -231 0 c-127 0 -229
3 -227 8 2 4 11 28 22 55 l19 47 215 0 215 0 -7 -31z m1734 1 c-98 -84 -88
-81 -276 -78 l-169 3 70 52 70 52 170 1 169 0 -34 -30z m1357 3 c-16 -82 -17
-83 -117 -83 -49 0 -90 4 -90 8 0 5 7 29 16 55 l16 47 90 0 91 0 -6 -27z
m2573 -63 l0 -90 -55 0 -55 0 0 35 0 35 -592 0 -592 0 54 55 54 55 593 0 593
0 0 -90z m-11426 -150 c347 -248 826 -526 1016 -590 54 -18 77 -21 137 -15 40
4 73 10 73 13 0 4 -54 159 -120 346 -66 186 -120 343 -120 347 0 5 41 9 90 9
84 0 91 -2 100 -22 5 -13 36 -93 68 -178 33 -85 119 -302 192 -481 l133 -325
637 -414 c351 -228 643 -416 650 -418 11 -4 12 63 7 349 -4 195 -7 550 -7 790
l0 437 -43 28 c-24 16 -101 74 -170 129 l-127 100 266 3 c147 1 269 1 271 -2
4 -3 -12 -435 -20 -574 -2 -29 0 -51 4 -50 4 2 116 144 249 316 l241 312 219
0 220 0 -183 -222 c-316 -385 -648 -804 -700 -884 -14 -21 -31 -59 -36 -84
-11 -46 -22 -1261 -11 -1259 7 1 240 269 545 629 255 301 702 819 799 925 l45
50 1 -192 0 -191 -142 -164 c-134 -154 -572 -662 -778 -902 -223 -260 -424
-525 -456 -601 -13 -32 -17 -132 -27 -631 -6 -327 -8 -597 -4 -600 3 -3 45 29
94 72 71 63 197 215 666 804 318 399 593 743 612 765 l34 40 0 -175 1 -175
-192 -215 c-653 -734 -1161 -1361 -1228 -1513 -22 -50 -42 -273 -43 -487 -2
-155 5 -182 70 -288 l20 -33 99 123 c125 156 302 362 474 553 148 165 778 805
792 805 4 0 8 -85 8 -190 l0 -189 -530 -448 c-292 -247 -557 -469 -589 -494
-112 -87 -360 -330 -380 -373 -13 -27 -25 -92 -36 -186 -9 -80 -29 -217 -46
-305 -16 -88 -29 -166 -29 -173 0 -15 267 164 900 604 578 402 697 484 704
484 3 0 6 -102 6 -228 l0 -227 -817 -524 c-450 -288 -828 -533 -839 -543 -27
-24 -52 -106 -104 -338 -22 -102 -55 -238 -72 -303 -17 -65 -29 -120 -26 -122
4 -4 1151 598 1756 921 l103 55 -3 -130 -3 -131 -710 -353 c-390 -193 -815
-403 -943 -466 -265 -129 -278 -139 -328 -281 -15 -41 -59 -158 -99 -260 -69
-175 -141 -397 -132 -406 4 -5 209 69 327 119 113 47 367 159 812 361 328 147
1061 466 1073 466 3 0 5 -67 5 -149 l0 -149 -42 -17 c-245 -98 -1425 -648
-1905 -889 -84 -42 -158 -76 -164 -76 -24 0 -370 193 -366 204 3 6 84 193 181
415 97 223 174 407 171 409 -3 3 -29 7 -58 9 -28 2 -207 15 -397 29 -669 48
-966 42 -1378 -28 -55 -9 -61 -12 -50 -26 10 -12 6 -11 -22 3 -145 75 -2087
1108 -2093 1114 -4 4 -6 1361 -5 3016 l3 3009 70 -95 c168 -227 387 -472 685
-769 l207 -205 254 -151 c515 -307 890 -491 1274 -624 125 -43 495 -143 495
-133 0 3 -32 96 -71 207 -188 532 -278 928 -315 1372 l-6 82 -207 100 c-113
55 -318 153 -456 217 -137 65 -356 173 -486 241 -382 201 -678 323 -900 373
l-84 19 543 1 542 1 154 -110z m5761 23 c8 -100 -1 -195 -50 -528 -18 -126
-37 -297 -41 -380 l-7 -149 34 28 c42 36 456 394 718 621 233 202 407 348 515
433 l79 62 178 0 c99 0 179 -2 179 -4 0 -2 -55 -48 -122 -102 -197 -159 -641
-531 -793 -664 -77 -67 -159 -138 -182 -157 -60 -49 -80 -99 -93 -228 -33
-333 -71 -500 -200 -885 -56 -168 -102 -325 -124 -430 -19 -90 -33 -166 -31
-168 2 -2 457 299 1012 670 554 371 1068 708 1142 749 189 105 206 121 295
297 81 161 216 493 306 752 l58 165 96 3 96 3 -65 -188 c-35 -103 -112 -309
-169 -458 -58 -148 -104 -271 -102 -272 9 -9 269 98 394 162 283 144 773 443
1043 636 l167 119 601 0 601 0 0 -24 c0 -22 -5 -24 -72 -31 -150 -14 -349 -46
-432 -70 -141 -41 -248 -92 -1253 -602 -545 -276 -597 -308 -626 -382 -9 -21
-30 -121 -46 -222 -60 -360 -150 -696 -263 -984 -71 -179 -171 -475 -164 -483
3 -2 152 63 333 143 1006 452 1515 717 1778 925 87 69 426 441 598 657 l147
184 0 -648 0 -648 -213 -1 c-167 0 -243 -5 -357 -23 -517 -79 -875 -184 -1275
-370 -182 -86 -634 -342 -675 -384 -48 -47 -64 -94 -89 -262 -41 -267 -104
-512 -188 -725 -25 -63 -110 -251 -189 -418 -79 -166 -144 -305 -144 -307 0
-5 232 77 385 137 272 107 1142 510 1273 590 195 118 343 242 617 514 271 270
392 420 699 868 l156 229 -2 -2163 -3 -2163 -1065 -566 -1066 -566 -314 8
c-382 10 -715 3 -910 -18 -273 -29 -535 -65 -589 -81 -78 -22 -133 -64 -187
-142 -189 -270 -378 -506 -524 -657 -53 -55 -127 -138 -164 -184 -56 -70 -65
-86 -51 -93 8 -5 124 -12 258 -16 l242 -7 -860 -457 c-473 -251 -868 -460
-877 -463 -17 -7 -18 20 -18 472 0 264 2 482 4 484 2 2 49 1 103 -2 54 -4 224
-10 378 -14 304 -8 406 0 477 36 51 26 204 173 311 299 45 52 110 127 146 166
147 157 236 275 298 391 34 65 60 119 58 121 -4 4 -726 -199 -955 -270 -186
-57 -459 -154 -660 -234 -74 -30 -140 -54 -148 -54 -10 0 -12 16 -10 62 l3 63
305 113 c399 147 777 278 970 336 443 134 470 146 540 238 22 29 90 118 151
198 147 192 304 428 378 570 52 100 165 360 157 360 -2 0 -122 -40 -267 -89
-469 -158 -746 -262 -1894 -708 -176 -68 -326 -127 -332 -130 -10 -4 -13 29
-13 145 l0 150 143 60 c483 204 1432 569 1927 742 113 39 225 83 249 97 76 44
130 102 220 238 150 223 251 433 336 690 44 133 111 402 103 411 -8 7 -255
-81 -388 -139 -188 -83 -449 -203 -925 -427 -236 -111 -448 -210 -470 -220
-73 -32 -649 -302 -727 -341 -93 -47 -112 -72 -164 -219 -44 -123 -155 -345
-239 -480 l-60 -95 -3 178 -2 178 50 121 c27 67 47 124 45 127 -3 2 -26 -5
-50 -17 l-45 -22 0 228 0 228 67 95 c117 165 269 401 332 514 78 140 115 237
135 350 26 148 32 143 -81 83 -54 -28 -171 -98 -261 -155 -89 -57 -169 -106
-177 -109 -13 -5 -15 26 -15 227 l1 234 105 68 105 68 94 192 c170 351 233
511 295 752 41 157 93 415 86 422 -4 5 -180 -73 -216 -96 -14 -9 -119 -95
-235 -191 -115 -97 -216 -179 -222 -184 -10 -6 -13 39 -13 211 l0 218 72 55
c150 114 161 129 257 319 117 232 180 383 262 631 87 263 219 776 219 851 0
15 -19 7 -97 -38 -140 -80 -209 -138 -472 -400 -129 -128 -236 -233 -238 -233
-2 0 -3 77 -3 171 l0 170 99 100 c112 112 112 112 160 325 43 191 77 375 105
574 24 168 56 472 56 532 l0 29 -92 -48 c-77 -40 -113 -67 -210 -162 l-118
-114 0 159 0 159 53 42 52 41 241 1 242 1 7 -87z m-667 -393 l-53 -59 -3 167
-3 167 53 49 53 49 3 -157 3 -157 -53 -59z m6515 324 c20 -4 37 -12 37 -18 0
-71 -326 -546 -628 -915 -114 -139 -374 -425 -466 -514 -202 -194 -805 -517
-1744 -934 -118 -52 -216 -93 -218 -90 -3 2 31 96 74 208 44 112 96 255 116
316 70 217 156 592 191 833 18 118 34 154 91 191 54 37 1377 705 1549 783 193
88 281 110 547 141 120 14 369 13 451 -1z m-6605 -424 c-7 -10 -105 -120 -218
-246 l-205 -227 -3 187 -2 188 26 31 c14 18 112 122 217 231 l192 200 3 -174
c2 -128 -1 -177 -10 -190z m465 203 c-28 -280 -96 -672 -158 -912 l-24 -94
-89 -91 c-133 -136 -672 -715 -788 -846 -55 -63 -364 -446 -686 -851 -323
-404 -594 -741 -603 -749 -16 -13 -16 -7 -11 85 3 55 8 278 12 495 l6 395 25
45 c36 62 171 241 294 391 215 259 1033 1205 1358 1569 370 414 652 707 670
695 4 -2 1 -61 -6 -132z m-7193 -3262 l0 -3037 1129 -600 1129 -599 193 -157
c106 -87 197 -163 203 -169 14 -15 -22 4 -1509 794 l-1250 664 -3 3158 -2
3158 55 -88 55 -87 0 -3037z m6268 2550 c-7 -10 -32 -39 -55 -66 l-43 -48 0
190 0 189 53 59 52 59 3 -183 c2 -135 -1 -187 -10 -200z m6875 -5652 c-5 -4
-429 -231 -943 -504 -514 -273 -973 -517 -1020 -543 -47 -25 -79 -38 -71 -29
12 16 7 17 -67 17 -45 0 -83 3 -85 8 -3 4 465 256 1039 561 l1044 554 0 2184
0 2184 30 44 c37 54 37 63 3 67 l-28 3 -3 666 -2 665 52 71 53 70 3 -3005 c1
-1653 -1 -3009 -5 -3013z m-5573 5254 c0 -4 -18 -81 -41 -172 -100 -405 -235
-784 -392 -1096 -71 -142 -98 -177 -208 -263 -257 -200 -373 -302 -663 -581
-613 -589 -997 -990 -1320 -1377 -83 -100 -154 -180 -158 -177 -12 6 -10 225
3 403 13 187 20 204 151 381 493 668 2121 2480 2543 2831 67 56 85 66 85 51z
m-755 -583 l-55 -55 0 168 0 169 53 60 52 60 3 -173 2 -173 -55 -56z m-76 88
l0 -173 -195 -210 c-107 -115 -206 -221 -219 -235 l-25 -25 0 178 0 177 216
230 c118 127 217 230 220 230 2 0 4 -78 3 -172z m6201 -296 c0 -15 -277 -419
-395 -577 -177 -238 -255 -326 -495 -561 -217 -211 -359 -329 -526 -437 -175
-113 -1403 -670 -1445 -655 -4 2 21 64 57 138 213 440 294 689 364 1109 17
102 37 195 45 207 24 36 67 65 305 197 275 152 329 180 511 257 362 155 785
264 1225 314 135 16 354 20 354 8z m-6660 -195 l0 -174 -55 -59 -54 -59 -1
169 0 168 52 64 c28 35 53 64 55 64 2 0 3 -78 3 -173z m558 -1175 c-17 -15
-42 -35 -55 -45 l-23 -18 0 218 0 218 53 41 52 42 3 -215 2 -214 -32 -27z
m601 281 c-47 -213 -105 -395 -188 -586 -93 -215 -204 -442 -229 -469 -14 -15
-89 -67 -166 -115 -230 -143 -682 -445 -1139 -762 -745 -516 -1042 -720 -1045
-717 -1 2 4 45 13 97 8 52 19 139 25 194 6 55 15 114 21 130 10 32 242 261
350 345 32 25 551 461 1155 970 1078 909 1188 999 1210 1000 8 0 6 -27 -7 -87z
m-699 -146 l0 -223 -217 -182 -218 -183 -3 203 -3 203 153 148 c132 128 275
257 285 257 2 0 3 -100 3 -223z m-507 -644 c-26 -24 -51 -43 -55 -43 -5 0 -8
84 -8 187 l0 187 53 54 52 53 3 -198 3 -198 -48 -42z m633 -949 c-2 -6 -27
-25 -55 -43 l-51 -31 0 235 0 234 53 34 52 34 3 -226 c1 -124 0 -231 -2 -237z
m-126 147 l0 -239 -217 -140 -218 -140 -3 232 -3 231 32 25 c27 22 400 268
407 270 1 0 2 -108 2 -239z m560 -62 c-68 -173 -338 -601 -581 -919 -111 -145
-61 -115 -1213 -725 -588 -311 -1070 -564 -1072 -562 -4 3 80 379 102 458 l16
57 1002 643 c1751 1125 1761 1132 1764 1116 2 -8 -7 -38 -18 -68z m-1020 -238
l0 -228 -55 -37 -55 -36 0 230 0 229 52 36 c29 19 54 35 55 35 2 0 3 -103 3
-229z m3444 69 c-86 -313 -199 -562 -375 -826 -118 -177 -160 -211 -324 -264
-327 -106 -1473 -544 -2018 -771 -66 -28 -122 -49 -127 -47 -4 2 33 66 81 143
166 261 257 436 319 610 47 135 51 140 138 181 147 70 548 257 747 349 110 51
385 179 610 285 610 286 929 429 962 430 8 0 4 -28 -13 -90z m-2854 -925 l0
-215 -50 -25 c-27 -14 -52 -25 -55 -25 -3 0 -5 75 -5 166 l0 166 53 73 c28 41
53 74 55 74 1 1 2 -96 2 -214z m-130 -118 l0 -164 -216 -106 c-119 -59 -218
-107 -220 -107 -3 0 -3 59 -2 132 l3 132 155 81 c111 59 172 98 215 138 33 31
61 56 63 57 1 0 2 -74 2 -163z m-460 -262 l0 -125 -50 -25 c-27 -14 -52 -25
-55 -25 -3 0 -5 56 -5 125 l0 125 48 24 c26 14 50 25 55 26 4 0 7 -56 7 -125z
m530 18 c-1 -14 -94 -185 -152 -278 -31 -49 -108 -162 -172 -250 -64 -88 -143
-199 -177 -247 -70 -101 -112 -135 -218 -179 -208 -86 -765 -329 -1176 -514
-444 -200 -775 -344 -823 -360 -29 -9 -30 -11 45 180 30 77 71 185 90 240 63
183 36 160 405 341 177 88 737 365 1243 616 506 251 923 457 928 457 4 1 7 -2
7 -6z m24 -501 c-20 -31 -45 -75 -55 -97 l-18 -40 0 171 -1 171 53 91 52 90 3
-164 2 -164 -36 -58z m2328 104 c-39 -74 -105 -188 -148 -253 -119 -180 -403
-553 -438 -574 -17 -11 -96 -40 -176 -65 -407 -127 -854 -280 -1300 -444 -587
-216 -600 -221 -600 -212 0 9 67 126 145 252 66 106 150 281 214 443 29 71 53
115 71 131 16 13 73 40 127 61 54 21 339 131 633 245 868 337 1532 578 1538
559 2 -5 -28 -69 -66 -143z m-2437 -352 c-19 -46 -19 -55 0 -48 13 5 15 -27
15 -253 l0 -258 -68 -140 c-38 -77 -106 -201 -152 -275 -75 -121 -206 -377
-198 -385 2 -2 39 9 83 25 44 15 138 49 208 74 l128 45 -3 -70 -3 -70 -130
-55 c-71 -31 -167 -80 -213 -110 -45 -30 -85 -54 -87 -54 -3 0 -5 132 -5 294
l0 294 92 154 c87 145 204 390 189 396 -4 1 -59 -14 -122 -34 -63 -20 -124
-38 -136 -41 l-23 -5 0 161 0 161 52 72 c29 40 95 132 148 203 52 72 127 177
165 234 l70 103 3 -191 c2 -153 -1 -198 -13 -227z m145 -139 l0 -144 -30 -43
c-17 -24 -41 -70 -55 -103 l-25 -60 0 227 0 227 43 20 c70 32 67 37 67 -124z
m-590 -230 l0 -156 -46 -19 c-25 -11 -50 -20 -55 -20 -5 0 -9 63 -9 144 l0
144 53 30 c28 17 53 31 55 31 1 1 2 -69 2 -154z m99 -303 c-144 -265 -463
-732 -540 -790 -13 -10 -159 -76 -324 -147 -535 -228 -582 -250 -1185 -540
-642 -308 -885 -432 -1135 -575 -166 -95 -363 -195 -371 -188 -2 3 38 40 89
84 50 43 155 140 232 215 77 75 205 195 285 268 80 72 187 178 239 234 100
108 278 327 315 385 18 30 66 57 381 212 633 312 1440 688 1795 835 237 98
254 104 258 94 2 -5 -15 -44 -39 -87z m4366 9 l129 -6 -404 -345 c-465 -397
-519 -441 -617 -504 -153 -98 -218 -113 -570 -126 -453 -17 -906 -23 -943 -13
l-34 9 115 120 c139 143 374 433 488 602 87 129 124 162 196 181 80 20 618 81
835 95 71 4 636 -5 805 -13z m-2282 -249 c-48 -64 -165 -202 -234 -276 -36
-39 -102 -114 -146 -166 -86 -101 -207 -222 -260 -258 -65 -46 -298 -50 -848
-16 -242 15 -493 39 -502 48 -17 17 702 307 1056 426 225 76 906 277 944 279
16 1 15 -4 -10 -37z m-2183 -400 l0 -279 -25 -13 c-14 -7 -25 -17 -25 -21 0
-5 11 -11 25 -15 l25 -6 0 -629 c0 -346 -2 -629 -5 -629 -10 0 -1555 824
-1555 830 0 3 24 18 54 32 l54 27 667 -355 c367 -195 669 -354 671 -354 2 0 4
345 4 767 l0 767 51 78 c28 43 53 78 55 78 2 0 4 -125 4 -278z m590 74 l0 -63
-55 -21 -56 -20 3 66 3 67 45 17 c25 9 48 17 53 17 4 1 7 -28 7 -63z m-724
-1444 c-4 -3 -1116 582 -1245 656 l-45 25 67 33 c36 19 141 66 234 105 453
193 682 293 720 315 42 24 127 123 217 252 l51 73 3 -727 c1 -400 0 -729 -2
-732z m-2216 1144 c47 -25 79 -46 73 -46 -7 0 -30 -15 -51 -34 l-38 -34 -139
74 c-76 41 -143 78 -148 83 -4 4 2 29 14 54 l22 45 91 -48 c50 -27 129 -69
176 -94z m2500 -131 c70 -12 267 -35 301 -35 5 0 10 -268 11 -619 l3 -619 864
459 c475 252 868 459 872 459 15 0 559 -274 559 -282 0 -3 -69 -42 -152 -86
-84 -44 -655 -344 -1268 -666 -613 -322 -1119 -586 -1124 -586 -13 0 -2416
1263 -2416 1270 0 3 136 69 301 148 l301 142 806 -429 807 -428 3 648 2 649
23 -5 c12 -2 60 -11 107 -20z m440 -550 c0 -278 2 -505 5 -505 3 0 331 173
729 385 399 212 730 385 736 385 21 0 112 -52 104 -59 -11 -10 -1671 -891
-1679 -891 -3 0 -5 268 -5 595 l0 595 55 0 55 0 0 -505z m1911 383 c-153 -80
-155 -81 -254 -90 -171 -16 -171 -13 13 84 l165 88 115 0 115 -1 -154 -81z"/>
<path d="M3890 15449 c0 -40 39 -444 60 -624 43 -363 116 -763 207 -1132 l48
-192 660 -526 c363 -290 662 -528 666 -531 4 -2 154 163 334 367 l328 371
-614 615 c-1144 1145 -1689 1678 -1689 1652z"/>
<path d="M10015 16904 c-87 -70 -110 -93 -222 -229 -41 -49 -272 -283 -513
-520 -895 -878 -1394 -1412 -1454 -1556 -11 -27 -16 -100 -21 -295 -8 -353
-21 -553 -51 -789 -24 -194 -50 -562 -41 -588 2 -6 260 243 573 554 313 312
612 605 664 653 52 47 117 112 145 143 64 74 751 715 940 877 33 29 65 67 76
90 18 41 43 297 70 717 15 239 6 731 -15 819 -23 97 -52 184 -62 187 -5 1 -45
-27 -89 -63z m65 -175 c18 -99 24 -472 11 -699 -15 -262 -50 -696 -60 -735 -5
-20 -34 -52 -92 -101 -142 -120 -860 -792 -924 -864 -33 -38 -118 -122 -190
-187 -71 -65 -325 -315 -564 -555 -238 -241 -438 -438 -443 -438 -10 0 -9 19
33 378 29 252 48 594 49 873 l0 146 39 59 c123 188 587 677 1428 1504 231 228
447 447 479 485 96 118 207 227 216 212 4 -8 12 -42 18 -78z"/>
<path d="M3470 9818 c0 -25 110 -437 160 -603 85 -279 318 -907 429 -1155 l20
-45 618 -317 618 -317 6 217 c12 396 9 1044 -4 1082 -11 33 -73 72 -926 592
-502 307 -915 558 -917 558 -2 0 -4 -6 -4 -12z"/>
<path d="M963 8823 l-43 -4 0 -67 c0 -81 27 -143 121 -284 142 -211 488 -650
693 -878 142 -158 467 -446 601 -532 179 -116 823 -444 1110 -566 239 -102
346 -134 458 -140 l97 -5 0 62 c0 59 -5 71 -119 294 -227 442 -281 603 -351
1044 -45 283 -34 259 -153 333 -575 360 -1432 675 -2012 740 -85 9 -311 11
-402 3z"/>
<path d="M3664 7873 c2 -10 14 -67 26 -128 111 -570 350 -1118 677 -1555 l78
-105 260 -106 c143 -58 338 -138 433 -177 l172 -71 0 612 0 612 -819 468
c-450 257 -822 467 -825 467 -4 0 -5 -8 -2 -17z"/>
<path d="M1307 6863 c-62 -3 -78 -7 -73 -18 9 -24 196 -282 289 -398 227 -284
555 -614 843 -848 l69 -57 919 -346 c505 -191 920 -345 923 -343 3 4 -403
1256 -410 1263 -7 7 -603 285 -745 348 -446 198 -825 325 -1117 377 -97 17
-169 21 -370 24 -137 1 -285 0 -328 -2z"/>
<path d="M4123 6015 c-17 -7 -39 -25 -49 -40 -69 -105 133 -587 485 -1153 44
-71 93 -143 108 -159 22 -23 71 -44 227 -97 126 -44 201 -65 205 -58 8 13 117
1040 110 1046 -9 9 -1006 463 -1029 469 -14 3 -39 0 -57 -8z"/>
<path d="M2190 5152 c0 -4 39 -79 86 -167 163 -303 300 -491 514 -706 375
-376 822 -617 1501 -808 176 -50 621 -153 628 -145 8 8 -96 200 -267 494 -182
311 -269 479 -313 601 l-32 89 -166 54 c-167 55 -1934 596 -1945 596 -3 0 -6
-3 -6 -8z"/>
<path d="M4480 4455 c0 -3 21 -61 46 -128 86 -226 180 -393 318 -564 78 -98
106 -127 106 -108 0 2 27 135 60 296 33 160 57 295 54 300 -21 34 -230 119
-433 175 -123 34 -151 39 -151 29z"/>
<path d="M11040 9664 c-391 -217 -520 -297 -1132 -701 -257 -169 -527 -347
-600 -394 -135 -88 -679 -474 -755 -535 -23 -19 -46 -49 -52 -67 -6 -17 -29
-155 -51 -306 -50 -343 -83 -465 -222 -829 -39 -101 -69 -185 -67 -187 11 -9
369 183 624 335 160 95 443 253 630 353 657 348 1067 574 1124 619 61 47 158
236 274 528 127 320 254 725 291 929 16 85 22 291 9 291 -5 0 -37 -16 -73 -36z
m-17 -166 c-41 -353 -409 -1354 -539 -1467 -51 -45 -384 -229 -1089 -603 -181
-96 -393 -212 -470 -258 -374 -220 -563 -330 -580 -336 -15 -6 -17 -4 -10 12
30 74 120 349 144 444 16 63 46 229 66 369 20 139 40 262 43 272 4 9 36 40 72
66 177 134 639 456 830 580 118 77 375 245 570 375 195 129 420 275 500 325
184 115 441 263 456 263 8 0 10 -14 7 -42z"/>
<path d="M10875 7721 c-147 -44 -284 -122 -1984 -1133 -355 -212 -422 -255
-453 -298 -10 -14 -27 -70 -39 -125 -60 -289 -149 -480 -475 -1017 -74 -121
-134 -222 -134 -224 0 -2 107 49 238 115 390 195 1199 558 1801 808 112 46
234 99 271 118 124 63 253 228 457 588 167 295 218 426 327 843 36 137 72 270
80 297 8 26 11 49 8 51 -4 2 -48 -8 -97 -23z m-35 -117 c0 -21 -126 -481 -156
-565 -47 -139 -150 -347 -274 -554 -205 -343 -262 -403 -456 -485 -680 -285
-1586 -685 -1843 -815 -39 -19 -71 -33 -71 -31 0 2 40 71 88 153 216 361 308
575 361 831 10 52 26 101 37 113 33 37 1819 1097 2174 1291 121 66 140 74 140
62z"/>
<path d="M13315 6805 c-5 -2 -102 -11 -215 -20 -424 -34 -625 -66 -806 -129
-143 -50 -709 -274 -1039 -410 -154 -64 -297 -122 -318 -128 -52 -16 -121 -79
-141 -129 -9 -23 -28 -94 -42 -158 -73 -342 -193 -663 -351 -944 -31 -54 -54
-99 -52 -101 14 -13 231 31 339 68 405 140 1110 431 1445 596 l200 99 235 218
c252 234 387 382 555 603 119 158 174 244 216 340 21 50 39 93 39 96 0 5 -50
4 -65 -1z m-85 -113 c0 -29 -238 -350 -360 -487 -40 -44 -79 -91 -88 -105 -9
-13 -125 -125 -257 -248 l-240 -223 -175 -88 c-203 -101 -554 -252 -965 -414
-280 -111 -594 -227 -615 -227 -6 0 8 36 30 80 98 195 200 482 259 726 57 236
63 255 88 284 13 16 40 34 61 40 20 7 199 79 397 160 585 240 969 386 1103
419 197 48 762 109 762 83z"/>
<path d="M12365 5055 c-408 -109 -1804 -551 -1933 -612 -69 -33 -99 -78 -178
-270 -79 -194 -145 -313 -343 -623 -162 -252 -185 -290 -179 -295 17 -16 670
140 978 233 275 84 328 107 523 224 444 268 553 356 800 651 57 68 502 726
495 732 -2 1 -75 -17 -163 -40z m-55 -120 c0 -15 -309 -465 -362 -527 -237
-278 -329 -354 -716 -588 -217 -131 -295 -166 -524 -235 -284 -85 -776 -211
-786 -200 -3 2 43 78 100 167 179 277 250 410 338 633 67 169 58 163 405 278
429 141 1501 475 1533 476 6 1 12 -1 12 -4z"/>
</g>
</svg>
